<svg id="Capa_1" enable-background="new 0 0 510.775 510.775" height="512" viewBox="0 0 510.775 510.775" width="512" xmlns="http://www.w3.org/2000/svg"><g><g><path d="m82.431 400.19h131.527v44.808h-131.527z" fill="#f2eae7"/><g id="XMLID_292_"><g><path d="m427.348 244.732c36 0 65.19 29.19 65.19 65.19s-29.19 65.18-65.19 65.18-65.18-29.18-65.18-65.18 29.18-65.19 65.18-65.19zm30.22 65.19c0-16.66-13.56-30.22-30.22-30.22s-30.21 13.56-30.21 30.22 13.55 30.21 30.21 30.21 30.22-13.55 30.22-30.21z" fill="#f2eae7"/></g></g><path d="m305.297 417.035c50.714 0 91.826-41.112 91.826-91.825v-78.584l7.624-11.83c8.899-13.808-1.015-31.99-17.442-31.99h-314.775c-16.427 0-26.34 18.182-17.442 31.99l7.624 11.83v90.092c0 44.081 35.681 79.844 79.762 79.945z" fill="#f9f7f7"/><path d="m370.35 383.77s-126.606-.287-159.146-.398c-3.893-.013-7.07-3.209-7.068-7.102 0-18.528-9.368-36.182-25.702-48.433-11.045-8.284-24.652-13.708-39.262-15.795-6.52-.932-11.407-6.434-11.407-13.021v-58.343c0-7.2-2.245-14.22-6.423-20.084l-1.201-1.686c-3.685-5.173-4.137-11.022-2.242-16.104h-45.369c-16.427 0-26.34 18.182-17.442 31.99l7.624 11.83v90.092c0 44.081 35.681 79.844 79.762 79.945l162.823.373c28.536 0 54.031-13.016 70.873-33.436-1.925.11-3.865.172-5.82.172z" fill="#f2eae7"/><ellipse cx="76.856" cy="368.77" fill="#be8f7d" rx="40.209" ry="53.613" transform="matrix(.721 -.693 .693 .721 -234.071 156.113)"/><g><path d="m440.933 482.867 21.565-23.143h29.616c6.164 0 11.161-4.997 11.161-11.161v-20.367c0-6.164-4.997-11.161-11.161-11.161h-473.453c-6.164 0-11.161 4.997-11.161 11.161v20.367c0 6.164 4.997 11.161 11.161 11.161h29.616l21.565 23.143c2.907 3.12 6.979 4.891 11.243 4.891h348.604c4.264 0 8.337-1.771 11.244-4.891z" fill="#ded4cf"/><g><path d="m461.879 460.388-20.947 22.479c-2.907 3.12-6.979 4.891-11.243 4.891h-348.603c-4.264 0-8.336-1.772-11.243-4.891l-21.565-23.143h-29.617c-6.164 0-11.161-4.997-11.161-11.161v-20.367c0-6.164 4.997-11.161 11.161-11.161h49.255l26.416 28.307c9.005 9.65 21.612 15.127 34.811 15.124z" fill="#cbc0bb"/></g><ellipse cx="125.523" cy="376.27" fill="#c9a291" rx="53.613" ry="40.209"/><path d="m192.086 174.095v-8.111c0-21.942-17.787-39.729-39.729-39.729h-12.582c-8.893 0-16.101-7.209-16.101-16.101 0-8.893 7.209-16.101 16.101-16.101h181.234c11.754 0 23.027-4.669 31.339-12.981.321-.321.453-.785.349-1.226l-12.781-54.488c-.24-1.021-1.507-1.382-2.249-.641-8.312 8.312-19.584 12.981-31.339 12.981h-198.301c-32.824 0-59.433 26.609-59.433 59.433 0 32.824 26.609 59.433 59.433 59.433h39.334c6.916 0 12.522 5.606 12.522 12.522v5.942c0 1.049.85 1.899 1.899 1.899h27.471c1.565 0 2.833-1.268 2.833-2.832z" fill="#f8f3f2"/></g></g><g><path d="m492.114 409.535h-52.064c-4.142 0-7.5 3.357-7.5 7.5s3.358 7.5 7.5 7.5h52.064c2.019 0 3.661 1.643 3.661 3.661v20.366c0 2.02-1.643 3.662-3.661 3.662h-29.616c-2.081 0-4.068.864-5.487 2.387l-21.565 23.143c-1.483 1.592-3.582 2.505-5.756 2.505h-348.604c-2.175 0-4.273-.913-5.756-2.505l-21.565-23.143c-1.418-1.522-3.406-2.387-5.487-2.387h-29.617c-2.019 0-3.661-1.643-3.661-3.662v-20.366c0-2.019 1.643-3.661 3.661-3.661h389.427c4.142 0 7.5-3.357 7.5-7.5s-3.358-7.5-7.5-7.5h-50.366c15.676-9.781 28.44-23.807 36.672-40.46 10.025 5.618 21.257 8.56 32.957 8.56 37.337 0 67.713-30.376 67.713-67.714s-30.376-67.714-67.713-67.714c-6.996 0-13.921 1.113-20.534 3.221l4.234-6.57c5.689-8.828 6.084-19.604 1.057-28.825-5.027-9.222-14.3-14.728-24.803-14.728h-34.44c-4.142 0-7.5 3.357-7.5 7.5s3.358 7.5 7.5 7.5h34.44c4.926 0 9.275 2.582 11.633 6.907s2.173 9.38-.496 13.52l-7.624 11.829c-.781 1.212-1.196 2.622-1.196 4.063v78.585c0 46.497-37.828 84.325-84.325 84.325h-136.015c10.732-8.6 17.354-20.339 17.354-33.265 0-26.308-27.415-47.71-61.112-47.71-7.1 0-13.915.96-20.259 2.706-10.605-9.691-23.016-15.624-35.053-17.441v-67.2c0-1.441-.415-2.852-1.196-4.062l-7.624-11.829c-2.668-4.141-2.854-9.195-.496-13.521 2.358-4.325 6.707-6.907 11.633-6.907h248.371c4.142 0 7.5-3.357 7.5-7.5s-3.358-7.5-7.5-7.5h-248.37c-10.503 0-19.775 5.506-24.803 14.727-5.028 9.222-4.633 19.998 1.057 28.826l6.428 9.974v64.939c-7.562 1.165-14.54 4.217-20.27 9.283-9.858 8.716-14.619 21.792-13.406 36.819 1.147 14.224 7.592 28.63 18.146 40.565 2.976 3.365 6.18 6.401 9.543 9.096h-30.564c-10.289.001-18.661 8.372-18.661 18.662v20.366c0 10.29 8.372 18.662 18.661 18.662h26.354l19.341 20.756c4.311 4.625 10.408 7.278 16.73 7.278h348.604c6.322 0 12.419-2.653 16.73-7.278l19.341-20.756h26.354c10.29 0 18.661-8.372 18.661-18.662v-20.366c-.001-10.29-8.372-18.661-18.662-18.661zm-12.05-99.614c0 29.066-23.647 52.714-52.713 52.714-9.755 0-19.089-2.627-27.298-7.624 1.609-5.104 2.811-10.385 3.579-15.805 6.483 5.265 14.736 8.429 23.719 8.429 20.795 0 37.713-16.918 37.713-37.714s-16.918-37.714-37.713-37.714c-8.532 0-16.403 2.857-22.729 7.653v-17.49c7.07-3.383 14.846-5.163 22.729-5.163 29.066 0 52.713 23.647 52.713 52.714zm-75.427 0c0-12.524 10.189-22.714 22.714-22.714s22.713 10.189 22.713 22.714-10.189 22.714-22.713 22.714-22.714-10.19-22.714-22.714zm-234.239 58.849h-11.387c-4.142 0-7.5 3.357-7.5 7.5s3.358 7.5 7.5 7.5h11.387c-4.794 14.432-23.087 25.209-44.875 25.209-6.484 0-12.657-.959-18.26-2.68-.24-.091-.485-.169-.733-.236-12.86-4.141-22.578-12.346-25.883-22.294h48.387c4.142 0 7.5-3.357 7.5-7.5s-3.358-7.5-7.5-7.5h-48.386c3.175-9.56 12.273-17.512 24.391-21.794.396-.099.784-.231 1.163-.395 5.881-1.934 12.424-3.021 19.321-3.021 21.788.001 40.082 10.779 44.875 25.211zm-98.547-15.295-20.533-23.222c10.819-4.594 25.426-1.726 38.215 7.491-7.274 4.154-13.339 9.523-17.682 15.731zm-35.364 5.192c-.572-7.082.692-13.414 3.599-18.471l25.123 28.413c-.518 2.496-.799 5.053-.799 7.662 0 12.579 6.282 24.026 16.511 32.557-10.417-2.1-21.31-8.491-30.003-18.323-8.418-9.522-13.543-20.828-14.431-31.838z"/><path d="m108.027 164.063h39.334c2.769 0 5.022 2.253 5.022 5.022v7.842c0 4.143 3.358 7.5 7.5 7.5s7.5-3.357 7.5-7.5v-7.842c0-11.04-8.982-20.022-20.022-20.022h-39.334c-28.636 0-51.933-23.297-51.933-51.933 0-28.637 23.297-51.934 51.933-51.934h35.843c4.142 0 7.5-3.357 7.5-7.5s-3.358-7.5-7.5-7.5h-35.843c-36.907 0-66.933 30.026-66.933 66.934s30.026 66.933 66.933 66.933z"/><path d="m175.833 45.197h130.496c13.842 0 26.854-5.39 36.642-15.177l1.7-1.7c2.929-2.93 2.929-7.678 0-10.607-2.929-2.928-7.678-2.928-10.606 0l-1.7 1.7c-6.954 6.954-16.2 10.784-26.035 10.784h-130.497c-4.142 0-7.5 3.357-7.5 7.5s3.358 7.5 7.5 7.5z"/><path d="m139.775 86.552c-13.014 0-23.601 10.587-23.601 23.601s10.587 23.602 23.601 23.602h12.582c17.771 0 32.229 14.458 32.229 32.229v10.943c0 4.143 3.358 7.5 7.5 7.5s7.5-3.357 7.5-7.5v-10.943c0-26.042-21.187-47.229-47.229-47.229h-12.582c-4.743 0-8.601-3.858-8.601-8.602 0-4.742 3.858-8.601 8.601-8.601h181.234c13.841 0 26.854-5.391 36.639-15.176l.516-.516c2.93-2.928 2.933-7.676.005-10.606-2.927-2.929-7.676-2.934-10.606-.005l-.519.518c-6.955 6.955-16.201 10.785-26.035 10.785z"/></g></g></svg>